<?xml version="1.0" encoding="UTF-8" standalone="no"?>
<!DOCTYPE svg PUBLIC "-//W3C//DTD SVG 1.1//EN" "http://www.w3.org/Graphics/SVG/1.1/DTD/svg11.dtd">
<!-- Created with Vectornator (http://vectornator.io/) -->
<svg height="450.0pt" stroke-miterlimit="10" style="fill-rule:nonzero;clip-rule:evenodd;stroke-linecap:round;stroke-linejoin:round;" version="1.1" viewBox="0 0 450 450" width="450.0pt" xml:space="preserve" xmlns="http://www.w3.org/2000/svg" xmlns:xlink="http://www.w3.org/1999/xlink">
<defs>
<linearGradient gradientTransform="matrix(369.64 -262.617 262.617 369.64 24.0016 338.771)" gradientUnits="userSpaceOnUse" id="LinearGradient" x1="0" x2="1" y1="0" y2="0">
<stop offset="0" stop-color="#000000"/>
<stop offset="1" stop-color="#2f75bb"/>
</linearGradient>
</defs>
<g id="layer1">
<path d="M123.1 45L326.9 45C370.17 45 405 79.83 405 123.1L405 326.9C405 370.17 370.17 405 326.9 405L123.1 405C79.83 405 45 370.17 45 326.9L45 123.1C45 79.83 79.83 45 123.1 45Z" fill="url(#LinearGradient)" fill-rule="nonzero" opacity="1" stroke="none"/>
</g>
<g id="layer1_2">
<path d="M140.95 109.01C143.4 109.22 151.82 112.81 158.11 116.47C169.61 123.16 188.69 137.87 196.53 146.06C198.47 148.09 200.96 150.45 202.06 151.31C204.61 153.3 210.16 159.33 212.44 162.57L214.14 165.67C214.3 165.96 214.34 170.95 214.4 173.6C214.5 178.28 215.17 185.49 215.89 189.66L217.06 196.42C217.22 196.74 217.39 197.07 217.6 197.4C217.63 197.44 217.64 197.48 217.67 197.52C217.69 197.55 217.72 197.58 217.74 197.61C217.77 197.66 217.82 197.7 217.86 197.75L221.78 200.66C225.85 203.72 228.57 205.41 231.34 206.21C231.65 206.3 231.96 206.38 232.27 206.44C235.83 207.11 239.44 206.69 243.02 206.42C243.63 206.37 244.24 206.34 244.82 206.49C246.13 206.82 246.27 206.97 247.45 207.49C248.11 207.78 249.14 208.37 254.47 207.82C254.47 207.82 261.66 206.97 261.67 207.07C261.67 207.09 261.85 207.31 261.66 207.42C260.77 207.93 257.82 209.1 256.36 209.84C255.01 210.52 253.91 211.12 252.96 211.75C252.48 212.06 252.04 212.39 251.63 212.73C251.01 213.24 250.46 213.79 249.9 214.41C249.31 215.07 248.79 215.8 248.29 216.53C247.56 217.62 246.81 218.92 245.94 220.52C244.59 222.98 244.41 224.45 244.84 229.01C245.69 237.95 246.96 240.85 251.67 244.44C256.15 247.86 264.57 252.29 272.42 255.35C278.1 257.56 279.38 258.94 284.01 267.82C285.6 270.88 288.22 275.86 289.81 278.92C299.36 297.23 309.2 325.86 309.7 336.79C309.83 339.7 309.58 341.14 309.02 340.99C308.91 340.96 308.77 340.88 308.65 340.71C308.25 340.18 307.99 339.57 307.74 338.96C307.23 337.74 305.64 335.38 304.17 333.71C302.71 332.04 300.02 328.88 298.2 326.69C296.38 324.5 293.75 321.54 292.37 320.12C289.46 317.12 284.78 310.31 284.16 309.56C277.66 301.63 270.43 294.07 265.53 284.73C265.34 283.61 260.16 280.45 252.82 276.94C238.43 270.06 230.56 263.37 226.15 254.3C222.82 247.45 220.74 243.93 218.74 242.43C217.05 241.17 214.92 240.59 213.1 239.52C212.23 239.01 211.62 238.63 210.86 238.37L199.92 244.32C193.84 247.63 186.46 251.32 183.55 252.57C180.64 253.83 177.08 255.93 175.65 257.26C174.21 258.59 171.19 261.88 170.87 261.92C170.15 262.02 169.03 259.19 168.85 259.08C167.73 258.38 166.9 258.1 167.12 256.99C167.24 256.41 169.3 255.12 171.71 254.16C174.7 252.97 176.87 251.51 178.54 249.54C181.11 246.52 192.27 237.96 199.99 233.08C202.95 231.21 204.18 231.18 204.83 229.33C205.37 227.36 204.91 225.31 204.97 223.28C205.08 216.56 198.28 214.39 195.09 209.65C195.02 209.54 194.95 209.46 194.88 209.35C189.28 201.5 188.12 192.35 186.46 183.05C184.14 169.99 183.33 166.6 182.29 165.7C181.58 165.09 179.39 162.44 177.42 159.8C165.93 144.43 156.97 131.84 156.69 131.43C153.19 126.14 149.08 121.06 147.27 118.23C147.05 117.89 145.53 115.72 143.8 113.52C141.93 111.14 140.15 109.34 140.3 109.11C140.38 108.99 140.6 108.96 140.95 108.99L140.95 109.01Z" fill="#ffffff" fill-rule="nonzero" opacity="1" stroke="none"/>
</g>
</svg>
